<?xml version="1.0" encoding="UTF-8" standalone="no"?>
<!-- Created with Inkscape (http://www.inkscape.org/) -->

<svg
   xmlns:osb="http://www.openswatchbook.org/uri/2009/osb"
   xmlns:dc="http://purl.org/dc/elements/1.1/"
   xmlns:cc="http://creativecommons.org/ns#"
   xmlns:rdf="http://www.w3.org/1999/02/22-rdf-syntax-ns#"
   xmlns:svg="http://www.w3.org/2000/svg"
   xmlns="http://www.w3.org/2000/svg"
   xmlns:sodipodi="http://sodipodi.sourceforge.net/DTD/sodipodi-0.dtd"
   xmlns:inkscape="http://www.inkscape.org/namespaces/inkscape"
   id="svg3094"
   version="1.1"
   inkscape:version="0.48.4 r9939"
   width="900"
   height="900"
   sodipodi:docname="logo-900x900.png">
  <metadata
     id="metadata3100">
    <rdf:RDF>
      <cc:Work
         rdf:about="">
        <dc:format>image/svg+xml</dc:format>
        <dc:type
           rdf:resource="http://purl.org/dc/dcmitype/StillImage" />
        <dc:title></dc:title>
      </cc:Work>
    </rdf:RDF>
  </metadata>
  <defs
     id="defs3098">
    <linearGradient
       id="linearGradient4114"
       osb:paint="solid">
      <stop
         style="stop-color:#000000;stop-opacity:0;"
         offset="0"
         id="stop4116" />
    </linearGradient>
  </defs>
  <sodipodi:namedview
     pagecolor="#ffffff"
     bordercolor="#666666"
     borderopacity="1"
     objecttolerance="10"
     gridtolerance="10"
     guidetolerance="10"
     inkscape:pageopacity="0"
     inkscape:pageshadow="2"
     inkscape:window-width="1353"
     inkscape:window-height="885"
     id="namedview3096"
     showgrid="false"
     inkscape:zoom="0.70710678"
     inkscape:cx="519.24864"
     inkscape:cy="462.38642"
     inkscape:window-x="263"
     inkscape:window-y="31"
     inkscape:window-maximized="0"
     inkscape:current-layer="svg3094" />
  <path
     style="fill:#191919;fill-opacity:0.87280704;stroke:none"
     d="m 420.33277,55.471771 -41.625,39.75 c 0.15157,3.232323 0.18815,6.594429 0.15625,9.687499 -161.95281,39.10698 -238.15128,135.76527 -276.34375,270.53125 -2.24838,-0.13308 -3.093784,0.0154 -5.281255,-0.25 l -39.46875,39.25 c 22.00532,2.55055 71.156255,-1.25 71.156255,-1.25 -1.43653,11.39057 -2.31153,62.14066 -0.875,73.53125 0,0 -48.650945,-3.26929 -70.656255,-0.71875 l 39.46875,39.25 c 2.187511,-0.26498 3.032871,-0.11685 5.281255,-0.25 38.19246,134.76596 114.39095,231.39305 276.34375,270.5 0.0319,3.09304 -0.005,6.48641 -0.15625,9.71875 l 41.625,39.71875 c 1.01127,-13.62219 1.21023,-50.49297 -0.34375,-68.4375 8.81811,0.9189 49.27566,0.98152 58.09375,0.0625 -1.55271,17.94456 0.0201,56.69034 1.03125,70.3125 l 41.65625,-39.75 c -0.15157,-3.23234 -0.2194,-6.59441 -0.1875,-9.6875 161.9528,-39.10696 238.15127,-135.76529 276.34375,-270.53125 2.24836,0.13308 3.12499,-0.0154 5.3125,0.25 l 39.4375,-39.25 c -22.0053,-2.55055 -71.65625,1.5625 -71.65625,1.5625 1.43646,-11.39059 0.46767,-64.82817 -0.96875,-76.21875 0,0 49.6822,4.11305 71.6875,1.5625 l -39.46875,-39.21875 c -2.18751,0.26498 -3.06414,0.11702 -5.3125,0.25 -38.19248,-134.766 -114.3597,-231.42424 -276.3125,-270.53125 -0.0319,-3.09304 0.005,-6.486373 0.15625,-9.718749 l -41.625,-39.71875 c -1.01109,13.622162 -1.39775,49.836699 0.15625,67.781249 -8.81811,-0.91902 -48.96316,-1.32525 -57.78125,-0.40625 1.55405,-17.94455 1.16739,-54.159087 0.15625,-67.781249 z m -41.8125,58.281249 c 0.44343,6.62517 0.96191,14.73959 -0.75,27.375 -5.66244,2.6476 -13.52864,6.85174 -19.5,9.8125 -9.02525,-0.0931 -16.32007,-8.74055 -28.5625,-15.15625 6.42007,5.79974 16.1215,14.21095 13.78125,23.15625 -3.35823,1.81962 -19.49319,11.04049 -24.71875,14.25 -7.4505,-7.13493 -6.3917,-19.87535 -7.65625,-32.3125 -0.83342,9.49778 -7.19198,40.13889 -11.9375,47.21875 -10.85323,2.32935 -47.20419,-10.76419 -56.21875,-13.90625 7.61208,4.66228 36.09929,17.38665 36.75,27.625 -6.13569,4.46996 -20.67887,15.22712 -26.9375,20.0625 -11.60717,-5.4856 -12.94565,-28.47713 -17.65625,-40.5625 -1.31736,8.27369 2.19601,54.9342 -0.46875,57.59375 -2.66474,2.65954 -42.69905,-1.98397 -50.4375,-1.59375 8.54883,1.06882 31.14563,7.11666 36.5625,16.125 -4.83347,6.31662 -16.34075,21.7624 -20.96875,28.125 -8.02122,-0.42372 -21.75104,-28.27052 -25.6875,-34.21875 1.49263,4.90995 14.30218,50.37599 12.21875,53.46875 -2.08342,3.09276 -38.35968,11.57702 -45.09375,10.5625 4.80279,2.03933 32.53125,6.4375 32.53125,6.4375 -3.50152,6.06403 -13.05426,24.41067 -16.09375,30.40625 -3.17982,0.85247 -21.40508,-15.13687 -29.84375,-23.03125 -0.0625,0.15623 -0.12526,0.31265 -0.1875,0.46875 6.68811,9.54242 19.90335,31.44506 22.46875,36.09375 -1.31343,2.96243 -1.75473,6.73685 -2.875,9.59375 -12.62175,3.04622 -24.85339,4.632 -36.40625,4.625 4.2283,-15.28302 9.65288,-32.35592 16.8125,-50.3125 -0.50302,-0.7177 -0.98449,-1.40376 -1.40625,-1.96875 0.44438,0.4237 1.0655,1.00582 1.59375,1.5 32.42608,-81.05412 100.04209,-179.75392 250.6875,-211.4375 z m 141.0625,0.40625 c 150.6337,31.68112 218.28971,130.35568 250.71875,211.40625 0.51899,-0.48564 1.12492,-1.05153 1.5625,-1.46875 -0.42176,0.56499 -0.87198,1.25105 -1.375,1.96875 7.15747,17.95258 12.58505,35.03258 16.8125,50.3125 -11.55285,0.007 -23.78451,-1.57878 -36.40625,-4.625 -1.12033,-2.85692 -1.56155,-6.63134 -2.875,-9.59375 2.5654,-4.64869 15.78064,-26.55133 22.46875,-36.09375 -0.0662,-0.16603 -0.12101,-0.33382 -0.1875,-0.5 -8.4277,7.88618 -26.69216,23.91576 -29.875,23.0625 -3.03953,-5.99558 -12.56098,-24.34222 -16.0625,-30.40625 0,0 27.72851,-4.39816 32.53125,-6.4375 -6.73403,1.01453 -43.04155,-7.46974 -45.125,-10.5625 -2.08342,-3.09276 10.75739,-48.5588 12.25,-53.46875 -3.93646,5.94822 -17.66629,33.79503 -25.6875,34.21875 -4.62803,-6.36261 -16.13528,-21.80843 -20.96875,-28.125 5.41688,-9.00836 28.01366,-15.05616 36.5625,-16.125 -7.73844,-0.3902 -47.77274,4.25331 -50.4375,1.59375 -2.66474,-2.65953 0.81741,-49.32002 -0.5,-57.59375 -4.71055,12.08541 -6.01783,35.07693 -17.625,40.5625 -6.25863,-4.83538 -20.80184,-15.59257 -26.9375,-20.0625 0.65074,-10.23836 29.13795,-22.96275 36.75,-27.625 -9.01454,3.14206 -45.36554,16.23564 -56.21875,13.90625 -4.74553,-7.0798 -11.13539,-37.72098 -11.96875,-47.21875 -1.26457,12.43712 -0.17444,25.17757 -7.625,32.3125 -5.22552,-3.20948 -21.36053,-12.43038 -24.71875,-14.25 -2.34025,-8.94534 7.36117,-17.3565 13.78125,-23.15625 -12.24245,6.41573 -19.56852,15.0631 -28.59375,15.15625 -5.97139,-2.96076 -13.8063,-7.16486 -19.46875,-9.8125 -1.71191,-12.63537 -1.22471,-20.74987 -0.78125,-27.375 z m -77.46875,49.6875 c 21.72278,-0.0611 45.59096,0.79753 51,2.34375 30.90608,69.29364 93.92751,170.17684 233.15625,234.59375 1.83404,21.97867 2.80279,79.20885 0.96875,101.1875 -139.22874,64.41692 -203.96892,162.58141 -234.875,231.875 -10.03861,1.26995 -77.68014,2.05119 -87.71875,0.78125 -30.90607,-69.2936 -93.95874,-170.14551 -233.1875,-234.5625 -1.83404,-21.97867 -1.45904,-77.70884 0.375,-99.6875 139.22873,-64.41692 202.28143,-165.30015 233.1875,-234.59375 4.60254,-1.2929 20.19825,-1.88995 37.09375,-1.9375 z m -81.03125,19.09375 c -32.328,76.95172 -103.9276,143.13218 -173.03125,174.1875 37.18662,-79.46363 95.12679,-137.25143 173.03125,-174.1875 z m 175.96875,0.40625 c 77.90445,36.9361 135.84468,94.72386 173.03125,174.1875 C 640.97915,326.47895 569.3795,260.29852 537.05152,183.34677 z m -426.625,341.09375 c 11.55282,-0.007 23.78451,1.61003 36.40625,4.65625 1.12028,2.85692 1.59281,6.63132 2.90625,9.59375 -2.56562,4.64906 -15.78112,26.55255 -22.46875,36.09375 0.0587,0.14711 0.12861,0.29027 0.1875,0.4375 8.44225,-7.89702 26.66498,-23.88345 29.84375,-23.03125 3.03955,5.99558 12.56095,24.37347 16.0625,30.4375 0,0 -27.69721,4.39818 -32.5,6.4375 6.73407,-1.01452 43.01033,7.43849 45.09375,10.53125 2.08343,3.09275 -10.72613,48.59005 -12.21875,53.5 3.93642,-5.94823 17.63506,-33.79502 25.65625,-34.21875 4.62803,6.36261 16.16653,21.77718 21,28.09375 -5.41683,9.00836 -28.04493,15.05617 -36.59375,16.125 7.73845,0.39021 47.80401,-4.25328 50.46875,-1.59375 2.66476,2.65956 -0.8486,49.32003 0.46875,57.59375 4.71061,-12.0854 6.01783,-35.0769 17.625,-40.5625 6.25862,4.83538 20.83306,15.59257 26.96875,20.0625 -0.65072,10.23836 -29.16918,22.99401 -36.78125,27.65625 9.01452,-3.14205 45.39673,-16.23565 56.25,-13.90625 4.74552,7.0798 11.10409,37.72097 11.9375,47.21875 1.26455,-12.43712 0.20574,-25.17757 7.65625,-32.3125 5.22555,3.20948 21.36049,12.39913 24.71875,14.21875 2.34025,8.94534 -7.3612,17.35648 -13.78125,23.15625 12.24244,-6.41573 19.53725,-15.03188 28.5625,-15.125 5.97137,2.96076 13.80632,7.16486 19.46875,9.8125 1.71191,12.63537 1.22469,20.71859 0.78125,27.34375 -150.66212,-31.68709 -218.26563,-130.37829 -250.6875,-211.4375 -0.53127,0.49696 -1.14716,1.07419 -1.59375,1.5 0.42132,-0.56439 0.90384,-1.22072 1.40625,-1.9375 -7.15962,-17.95658 -12.61545,-35.06072 -16.84375,-50.34375 z m 677.84375,1.9375 c -4.22864,15.28425 -9.68328,32.35434 -16.84375,50.3125 0.50629,0.72255 0.9821,1.40056 1.40625,1.96875 -0.44659,-0.42581 -1.06248,-1.00304 -1.59375,-1.5 -32.42658,81.05351 -100.04411,179.75433 -250.6875,211.4375 -0.44345,-6.62518 -0.93066,-14.73959 0.78125,-27.375 5.66245,-2.64762 13.49738,-6.85174 19.46875,-9.8125 9.02525,0.0931 16.32008,8.74055 28.5625,15.15625 -6.42004,-5.79972 -16.12154,-14.21096 -13.78125,-23.15625 3.35822,-1.81962 19.52448,-11.04049 24.75,-14.25 7.45055,7.13495 6.3604,19.87537 7.625,32.3125 0.83337,-9.49776 7.19201,-40.13892 11.9375,-47.21875 10.85326,-2.32935 47.23549,10.76419 56.25,13.90625 -7.61208,-4.66229 -36.0993,-17.38666 -36.75,-27.625 6.13566,-4.46998 20.67887,-15.22712 26.9375,-20.0625 11.60717,5.4856 12.91443,28.47713 17.625,40.5625 1.31737,-8.27369 -2.19599,-54.93419 0.46875,-57.59375 2.66476,-2.65953 42.7303,1.98397 50.46875,1.59375 -8.54881,-1.06882 -31.14566,-7.11664 -36.5625,-16.125 4.83347,-6.3166 16.34074,-21.76239 20.96875,-28.125 8.02122,0.42372 21.75108,28.27052 25.6875,34.21875 -1.49261,-4.90995 -14.33342,-50.37598 -12.25,-53.46875 2.08344,-3.09276 38.35971,-11.57703 45.09375,-10.5625 -4.80278,-2.03932 -32.5,-6.4375 -32.5,-6.4375 3.50156,-6.06401 13.02296,-24.41069 16.0625,-30.40625 3.17876,-0.8522 21.40155,15.13424 29.84375,23.03125 0.0624,-0.15587 0.1254,-0.31301 0.1875,-0.46875 -6.69084,-9.54888 -19.9044,-31.44704 -22.46875,-36.09375 1.31343,-2.96243 1.78596,-6.73683 2.90625,-9.59375 12.62174,-3.04622 24.85342,-4.632 36.40625,-4.625 z m -600.625,16.9375 c 69.10366,31.05532 140.70325,97.23575 173.03125,174.1875 -77.90445,-36.93609 -135.84465,-94.72385 -173.03125,-174.1875 z m 523.40625,1.90625 c -37.18657,79.46365 -95.12678,137.25144 -173.03125,174.1875 32.32801,-76.95172 103.92763,-143.13218 173.03125,-174.1875 z"
     id="path4878"
     inkscape:connector-curvature="0" />
  <path
     d="m 649.74121,469.51914 c 6.22596,12.21086 17.40358,34.83213 14.57515,50.51313 20.3738,-39.90653 15.98556,-96.20115 3.25194,-125.69727 -12.73363,-29.49614 -16.12928,-71.13772 -10.18692,-91.95852 5.94237,-20.82079 6.79128,-14.74806 15.28036,-22.55586 16.97817,-13.88053 2.54673,-21.68832 -11.0358,-15.61559 -13.58254,6.07272 -13.58254,13.88052 -17.82709,22.55586 -7.64017,17.35066 -7.64017,71.13772 -1.69781,89.35591 5.94236,18.2182 16.97817,57.83349 7.64017,93.40234 z"
     id="Tentacle 9"
     inkscape:connector-curvature="0"
     style="fill:#7f0808;stroke:none"
     sodipodi:nodetypes="ccsscscsc" />
  <path
     d="m 582.655,375.15571 c 18.0012,22.6202 24.89212,30.00228 43.84491,58.30829 5.58027,-25.61951 -10.36333,-55.65619 -22.32104,-75.97512 -11.9577,-20.31892 0,-68.90765 11.95771,-88.34315 11.95769,-19.43549 19.13232,-53.88933 3.9859,-77.74198 -15.14644,-23.85266 -11.16053,-0.88344 -6.37745,12.36804 7.17462,21.20236 -4.78308,47.70531 -19.92951,64.4905 -15.14643,16.7852 -22.32104,54.77096 -11.16052,106.89342 z"
     id="Tentacle 8"
     inkscape:connector-curvature="0"
     style="fill:#7f0808;stroke:none"
     sodipodi:nodetypes="ccssscsc" />
  <path
     d="m 531.02056,334.79385 c 11.40223,3.63428 24.55866,16.3543 32.45252,23.62287 11.40225,-64.50863 14.91063,-118.1144 7.89388,-154.45728 -7.01678,-36.3429 -7.01678,-59.05721 -16.66484,-81.77151 -9.64804,-22.714311 -16.66481,-11.81144 -9.64804,8.17714 7.01677,19.9886 10.52514,54.51435 10.52514,79.0458 0,24.53145 -11.40225,92.67437 -24.55866,125.38298 z"
     id="Tentacle 7"
     inkscape:connector-curvature="0"
     style="fill:#7f0808;stroke:none" />
  <path
     d="m 479.15472,349.93192 c 2.46906,0 14.81437,10.55473 17.28343,14.95252 8.2302,-46.61665 12.34531,-40.45974 20.57551,-37.82105 34.56686,-58.93049 20.57551,-133.69303 9.05323,-158.3207 -11.52229,-24.62766 -12.34531,-52.77356 -10.69928,-70.364752 1.64605,-17.591189 -6.71584,-15.304334 -12.34529,0 -5.62946,15.304332 -0.82303,36.061932 7.40717,58.050922 8.23021,21.98899 12.34531,92.35374 -0.82302,113.46316 -13.16832,21.10942 -31.27477,55.41224 -30.45175,80.0399 z"
     id="Tentacle 6"
     inkscape:connector-curvature="0"
     style="fill:#7f0808;stroke:none" />
  <path
     d="m 406.57263,292.37997 c 0,0 8.61427,-14.60994 13.78283,-21.00179 5.16856,18.26242 6.89142,44.74292 0.86144,68.48406 -3.44573,-12.7837 -9.47571,-40.17731 -14.64427,-47.48227 z m 41.34849,-69.39719 c 0,0 11.19854,10.04433 13.78283,22.82803 15.50569,-38.35107 12.05997,-63.91846 9.4757,-96.7908 -2.58428,-32.87234 -12.05999,-34.69858 -12.05999,-4.5656 0,30.13299 4.30714,47.48227 -11.19854,78.52837 z"
     id="Tentacle 5"
     inkscape:connector-curvature="0"
     style="fill:#7f0808;stroke:none" />
  <path
     d="m 372.66226,328.40198 c 26.046,-14.95273 27.7824,26.38716 28.65061,37.82159 0,0 9.55018,-6.15699 11.28658,-8.79571 0.8682,-28.14631 -15.62759,-68.60664 -26.04598,-88.83679 -10.4184,-20.23017 -6.0774,-68.60664 -3.4728,-84.43894 2.6046,-15.8323 6.94559,-26.38717 6.94559,-26.38717 0,0 19.10039,65.08835 32.99159,87.07765 13.89118,21.98931 17.36398,68.60664 12.15478,94.11423 13.89121,-3.51829 20.83679,-0.87956 30.38699,2.63872 13.02299,-45.73776 -6.0774,-88.83681 -26.04598,-114.34439 -19.9686,-25.50759 -39.06898,-99.39168 -42.54178,-118.74226 -3.4728,-19.350584 -15.62759,-24.628019 -10.41839,-1.75914 5.2092,22.86888 -13.023,56.29263 -19.9686,73.88407 -6.94559,17.59144 -17.36398,108.18738 6.07739,147.76814 z"
     id="Tentacle 4"
     inkscape:connector-curvature="0"
     style="fill:#7f0808;stroke:none" />
  <path
     d="m 329.21587,360.0381 c 7.91952,-8.06798 19.79881,-17.03241 26.92638,-20.61819 2.37586,-25.99684 -7.91952,-56.4759 -10.29538,-71.71543 -2.37586,-15.23953 -7.12757,-88.74784 -0.79195,-124.60556 6.33562,-35.85771 0.79195,-27.78972 -6.33562,-10.75731 -7.12758,17.03241 -18.21491,93.23006 -18.21491,116.53757 0,23.30752 11.87929,76.19765 8.71148,111.15892 z"
     id="Tentacle 3"
     inkscape:connector-curvature="0"
     style="fill:#7f0808;stroke:none" />
  <path
     d="m 264.91439,441.23702 c 14.7907,-24.6605 34.90921,-55.82821 47.95983,-66.88292 6.96033,-18.70796 6.96033,-21.25905 6.09029,-46.76991 -0.87004,-25.51086 -15.66074,-43.36846 -27.84132,-59.52534 -12.18058,-16.15687 -13.05062,-37.41593 -13.05062,-62.07642 0,-24.6605 -3.48016,-22.10942 -13.92065,-0.85037 -10.4405,21.25905 -0.87005,61.22607 9.57045,73.13114 10.44049,11.90507 34.80164,53.5728 9.57045,88.43765 -10.44049,13.60579 -17.50839,47.32459 -18.37843,74.53617 z"
     id="Tentacle 2"
     inkscape:connector-curvature="0"
     style="fill:#7f0808;fill-opacity:1;stroke:none"
     sodipodi:nodetypes="ccssssscc" />
  <path
     d="m 231.03197,517.77912 c 1.573,-25.48096 11.92382,-39.91341 19.94605,-55.59593 -6.40073,-12.19752 -6.40073,-44.43381 -4.57195,-54.01758 1.82877,-9.58376 15.54461,-55.76007 12.80144,-81.89761 -2.74316,-26.13754 -8.22949,-53.14632 -33.83239,-58.37384 -25.60289,-5.2275 -14.63022,10.45502 -6.40073,14.81128 8.22951,4.35625 23.77412,20.03877 21.94534,43.56256 -1.82877,23.52378 -7.31511,58.37383 -20.11656,88.86762 -12.80144,30.49379 0.17052,93.05974 10.2288,102.6435 z"
     id="Tentacle 1"
     inkscape:connector-curvature="0"
     style="fill:#7f0808;fill-opacity:1;stroke:none"
     sodipodi:nodetypes="ccssssssc" />
  <path
     d="m 437.20692,495.77301 c 2.65474,33.7846 -10.61903,52.84259 -28.31738,51.97632 -17.69836,-0.86628 -35.39673,-41.58106 -61.94427,-34.65087 21.68049,6.49704 24.695,14.33654 24.695,14.33654 -0.0198,13.89965 6.77436,26.53426 15.61012,32.65429 9.27339,6.42315 11.13124,9.59765 26.22912,-6.71701 3.53968,-7.79645 13.81549,-3.96085 22.491,-22.93011 3.53967,23.38934 -20.00163,48.49294 -31.50556,55.42311 -10.61902,-17.32544 -48.6705,-35.51714 -48.6705,-35.51714 17.54006,11.82486 11.79618,29.63954 33.63516,44.19814 5.01937,2.90227 12.61629,2.54756 19.79113,-4.4491 5.88105,-5.73499 22.19752,-22.14807 30.81461,-46.39478 4.07311,52.38071 -30.2609,70.74986 -39.11008,78.5463 -6.19442,-6.93018 -47.78558,-28.58695 -47.78558,-28.58695 11.00802,9.05255 14.74018,24.83802 25.20741,33.1557 7.50724,5.96556 23.2862,8.77646 25.40247,-0.67834 9.43756,-7.24304 25.00667,-21.85378 30.80259,-35.21709 6.19442,44.77998 -20.18357,43.33186 -39.99912,75.73615 0.88492,-7.79644 -35.21892,-53.0722 -55.57204,-60.86862 4.42459,-10.39527 6.19443,-12.1278 9.7341,-53.70887 3.53968,-41.58103 -22.12295,-51.97631 -21.23803,-82.29582 0.88492,-30.31952 46.01574,-50.24376 46.90066,-66.70292 20.35312,37.24968 59.28952,45.04613 62.82919,92.69107 z"
     id="Face - Eyes [R]"
     inkscape:connector-curvature="0"
     style="fill:#b0a67f;stroke:none"
     sodipodi:nodetypes="cscsscccccscccsccccsscc" />
  <path
     d="m 348.88303,620.71387 c 11.75453,4.27266 37.97619,36.74491 38.88039,51.27196 -7.23356,5.1272 -15.37132,17.09066 -15.37132,17.09066 -1.80838,-15.38159 -16.27551,-54.6901 -23.50907,-68.36262 z"
     id="Face - Cheek [R]"
     inkscape:connector-curvature="0"
     style="fill:#b0a67f;stroke:none" />
  <path
     d="m 549.14117,622.68967 c -11.57373,4.22077 -37.39205,36.29863 -38.28234,50.64926 7.12229,5.06492 15.13488,16.88308 15.13488,16.88308 1.78057,-15.19477 16.02517,-54.02587 23.14746,-67.53234 z"
     id="Face - Cheek [L]"
     inkscape:connector-curvature="0"
     style="fill:#b0a67f;stroke:none" />
  <path
     d="m 419.33203,684.74962 c 0,0 -7.32827,-24.36908 2.09379,-23.30957 9.42207,1.05954 -2.09379,23.30957 -2.09379,23.30957 z"
     id="Face - Tooth 1 [R]"
     inkscape:connector-curvature="0"
     style="fill:#b0a67f;stroke:none" />
  <path
     d="m 448.04462,693.08911 c 0,0 -8.39025,-18.81891 -0.36358,-19.27449 8.02668,-0.42053 0.36358,19.27449 0.36358,19.27449 z"
     id="Face - Tooth 3 [C]"
     inkscape:connector-curvature="0"
     style="fill:#b0a67f;stroke:none" />
  <path
     d="m 462.72905,671.46476 c 5.8712,-11.77447 7.99698,8.10915 4.62272,10.12022 0,0 -2.53069,-2.01107 -4.21781,-5.25473 -1.28221,6.06563 -5.06139,12.55295 -5.06139,12.55295 0,0 -8.84054,-22.7056 4.65648,-17.41844 z"
     id="Face - Tooth 2 [L]"
     inkscape:connector-curvature="0"
     style="fill:#b0a67f;stroke:none" />
  <path
     d="m 434.01212,671.29299 c -6.306,-11.15876 -8.58924,7.68511 -4.96508,9.59102 0,0 2.71811,-1.90591 4.53018,-4.97994 1.37717,5.74845 5.4362,11.89653 5.4362,11.89653 0,0 9.49528,-21.51827 -5.0013,-16.50761 z"
     id="Face - Tooth 2 [R]"
     inkscape:connector-curvature="0"
     style="fill:#b0a67f;stroke:none" />
  <path
     d="m 477.19421,683.94805 c 0,0 7.91068,-22.81939 -2.26017,-21.82722 -10.17086,0.99213 2.26017,21.82722 2.26017,21.82722 z"
     id="Face - Tooth 1 [L]"
     inkscape:connector-curvature="0"
     style="fill:#b0a67f;stroke:none" />
  <path
     inkscape:connector-curvature="0"
     style="fill:#b0a67f;fill-opacity:1;stroke:none"
     d="m 387,335.20584 c -47.82493,9.60298 -127.53705,121.36213 -145.25,170.25 0,0 26.63995,1.30066 43.78125,30.59375 4.65483,7.95472 9.64505,10.81419 18.0625,19.375 -15.94165,-6.11099 -27.30352,-28.16626 -61.84375,-32.53125 6.19952,80.3158 54.90916,207.79762 163.84375,255.8125 -15.05598,-19.20595 -25.68542,-44.54005 -33.65625,-62 -37.19716,-20.07895 -74.38564,-95.1606 -73.5,-137.9375 11.51341,44.52288 50.49518,108.27002 69.09375,117 3.5426,-13.09499 -26.59169,-73.34855 -34.5625,-89.0625 3.54256,-19.20595 5.32591,-61.08533 -6.1875,-84.65625 -7.08517,9.60297 -11.5199,21.81529 -15.0625,36.65625 -2.65693,-20.95194 6.21598,-48.02003 16.84375,-56.75 0,0 -7.10301,-15.70552 -11.53125,-23.5625 -8.85648,14.84096 -19.46805,41.91104 -22.125,57.625 -4.42824,-50.63387 52.25514,-113.5108 72.625,-131.84375 1.77131,-1.746 7.06321,-2.62779 4.40625,-17.46875 14.17038,40.15789 54.92478,55.02481 63.78125,79.46875 15.94164,31.4279 9.75344,145.79405 -3.53125,165 -7.08517,15.71395 -44.31042,45.39703 -52.28125,55 5.3139,9.60299 25.7074,27.91425 29.25,31.40625 3.54259,3.492 8.8544,7.84975 7.96875,10.46875 -0.88564,2.61898 -0.0227,34.06331 7.0625,48.03125 0,0 -2.6391,-52.3798 11.53125,-68.09375 -6.19953,-2.61899 -27.46532,-10.47753 -40.75,-27.9375 3.54258,-6.98395 17.72594,-21.82453 30.125,-27.0625 7.08517,-3.492 23.03125,16.59375 23.03125,16.59375 0,0 17.69608,-20.08575 24.78125,-16.59375 12.39906,5.23797 26.58242,20.07855 30.125,27.0625 -13.28468,17.45997 -34.55047,25.31851 -40.75,27.9375 14.17035,15.71395 11.53125,68.09375 11.53125,68.09375 7.08517,-13.96794 7.94814,-45.41227 7.0625,-48.03125 -0.88565,-2.619 4.42616,-6.97675 7.96875,-10.46875 3.5426,-3.492 23.93611,-21.80326 29.25,-31.40625 -7.97083,-9.60297 -45.19608,-39.28605 -52.28125,-55 -13.28469,-19.20595 -19.47289,-133.5721 -3.53125,-165 8.85647,-24.44394 49.61087,-39.31086 63.78125,-79.46875 -2.65696,14.84096 2.63494,15.72275 4.40625,17.46875 20.36986,18.33295 77.05324,81.20988 72.625,131.84375 -2.65695,-15.71396 -13.26852,-42.78404 -22.125,-57.625 -4.42824,7.85698 -11.53125,23.5625 -11.53125,23.5625 10.62777,8.72997 19.50068,35.79806 16.84375,56.75 -3.5426,-14.84096 -7.97733,-27.05328 -15.0625,-36.65625 -11.51341,23.57092 -9.73006,65.4503 -6.1875,84.65625 -7.97081,15.71395 -38.1051,75.96751 -34.5625,89.0625 18.59857,-8.72998 57.58034,-72.47712 69.09375,-117 0.88564,42.7769 -36.30284,117.85855 -73.5,137.9375 -7.97083,17.45995 -18.60027,42.79405 -33.65625,62 108.93459,-48.01488 157.64423,-175.4967 163.84375,-255.8125 -34.54023,4.36499 -48.0271,27.82651 -63.96875,33.9375 9.69045,-10.27039 12.03773,-9.71727 17.1875,-19.65625 C 622.64018,511.75389 656.25,505.45584 656.25,505.45584 638.53705,456.56797 558.82493,344.80882 511,335.20584 c -0.88564,42.7769 -45.16414,107.38901 -54.90625,113.5 3.54258,-33.17392 37.1875,-69.84375 37.1875,-69.84375 -20.36989,-18.33295 -31,-29.6875 -31,-29.6875 l -4.4375,65.46875 -5.3125,-66.34375 -7.96875,0 -4.40625,66.34375 -4.4375,-65.46875 c 0,0 -10.63011,11.35455 -31,29.6875 0,0 33.64492,36.66983 37.1875,69.84375 -9.74211,-6.11099 -54.02061,-70.7231 -54.90625,-113.5 z m 217.5625,222.1875 c -11.13078,5.52581 -17.58041,7.46827 -21.1875,14.875 l 4.21875,-12.03125 c 5.10839,-0.28465 10.68299,-1.14625 16.96875,-2.84375 z m -311.125,1.0625 c 6.28576,1.6975 11.86036,2.5591 16.96875,2.84375 l 4.25,12.03125 c -3.60709,-7.40673 -10.08797,-9.34919 -21.21875,-14.875 z"
     id="Face - Main [C]" />
  <path
     d="m 461.47892,496.03586 c -2.65474,33.7846 10.61904,52.84259 28.31739,51.97632 17.69836,-0.86628 35.39673,-41.58106 61.94427,-34.65087 -21.68049,6.49704 -24.695,14.33654 -24.695,14.33654 0.0198,13.89965 -6.77436,26.53426 -15.61012,32.65429 -9.27339,6.42315 -11.13124,9.59765 -26.22912,-6.71701 -3.53968,-7.79645 -13.81549,-3.96085 -22.49101,-22.93011 -3.53967,23.38934 20.00164,48.49294 31.50557,55.42311 10.61902,-17.32544 48.6705,-35.51714 48.6705,-35.51714 -17.54006,11.82486 -11.79618,29.63954 -33.63516,44.19814 -5.01937,2.90227 -12.61629,2.54756 -19.79113,-4.4491 -5.88105,-5.73499 -22.19753,-22.14807 -30.81462,-46.39478 -4.07311,52.38071 30.26091,70.74986 39.11009,78.5463 6.19442,-6.93018 47.78558,-28.58695 47.78558,-28.58695 -11.00802,9.05255 -14.74018,24.83802 -25.20741,33.1557 -7.50724,5.96556 -23.2862,8.77646 -25.40247,-0.67834 -9.43756,-7.24304 -25.00668,-21.85378 -30.8026,-35.21709 -6.19442,44.77998 20.18358,43.33186 39.99913,75.73615 -0.88492,-7.79644 35.21892,-53.0722 55.57204,-60.86862 -4.42459,-10.39527 -6.19443,-12.1278 -9.7341,-53.70887 -3.53968,-41.58103 22.12295,-51.97631 21.23803,-82.29582 -0.88492,-30.31952 -46.01574,-50.24376 -46.90066,-66.70292 -20.35312,37.24968 -59.28953,45.04613 -62.8292,92.69107 z"
     id="Face - Eyes [R]-3"
     inkscape:connector-curvature="0"
     style="fill:#b0a67f;stroke:none"
     sodipodi:nodetypes="cscsscccccscccsccccsscc" />
</svg>
